Coordinates
version=1
nRows=65
nColumns=12
inDegrees=yes

Units are S.I. units (second, meters, Newtons, ...)
Angles are in degrees

endheader
time	SC_y	SC_z	SC_x	AC_y	AC_z	AC_x	GH_y	GH_z	GH_yy	EL_x	PS_y
       0.0              -55.38          37.73          22.59           66.1          2.548           19.4          31.69          85.24         -135.6          112.8          109.0
   0.01415              -55.37          37.73           22.6          66.09          2.546           19.4           31.7          85.23         -135.6          112.8          109.1
    0.0283              -55.37          37.73          22.61          66.09          2.545           19.4           31.7          85.22         -135.5          112.7          109.1
   0.04245              -55.36          37.73          22.62          66.09          2.544          19.39           31.7          85.21         -135.5          112.7          109.1
    0.0566              -55.36          37.72          22.63          66.08          2.542          19.39           31.7           85.2         -135.4          112.7          109.1
   0.07075              -55.35          37.72          22.64          66.08          2.541          19.39           31.7          85.18         -135.4          112.7          109.1
    0.0849              -55.35          37.72          22.64          66.07          2.539          19.39          31.71          85.17         -135.3          112.7          109.1
   0.09904              -55.34          37.71          22.66          66.07          2.538          19.39          31.71          85.15         -135.3          112.7          109.1
    0.1132              -55.33          37.71          22.67          66.06          2.536          19.39          31.71          85.14         -135.2          112.7          109.1
    0.1273              -55.33           37.7          22.68          66.06          2.534          19.38          31.71          85.12         -135.2          112.7          109.1
    0.1415              -55.32           37.7          22.69          66.05          2.532          19.38          31.72           85.1         -135.1          112.7          109.1
    0.1556              -55.31          37.69          22.71          66.04           2.53          19.38          31.72          85.08         -135.0          112.7          109.1
    0.1698               -55.3          37.69          22.72          66.04          2.527          19.38          31.72          85.06         -134.9          112.7          109.1
    0.1839              -55.29          37.68          22.74          66.03          2.525          19.38          31.73          85.04         -134.9          112.7          109.2
    0.1981              -55.28          37.68          22.75          66.02          2.522          19.37          31.73          85.01         -134.8          112.7          109.2
    0.2122              -55.27          37.67          22.77          66.01          2.519          19.37          31.74          84.98         -134.7          112.7          109.2
    0.2264              -55.26          37.66          22.79           66.0          2.515          19.37          31.74          84.96         -134.5          112.7          109.2
    0.2405              -55.24          37.66          22.82          65.99          2.512          19.36          31.75          84.92         -134.4          112.7          109.2
    0.2547              -55.23          37.65          22.84          65.98          2.508          19.36          31.75          84.89         -134.3          112.7          109.2
    0.2688              -55.21          37.64          22.87          65.96          2.503          19.35          31.76          84.85         -134.1          112.6          109.3
     0.283               -55.2          37.63           22.9          65.95          2.499          19.35          31.76          84.81         -134.0          112.6          109.3
    0.2971              -55.18          37.62          22.93          65.93          2.493          19.34          31.77          84.76         -133.8          112.6          109.3
    0.3113              -55.16           37.6          22.97          65.92          2.487          19.34          31.78          84.71         -133.6          112.6          109.3
    0.3254              -55.13          37.59          23.01           65.9          2.481          19.33          31.79          84.65         -133.4          112.6          109.4
    0.3396              -55.11          37.57          23.05          65.87          2.474          19.33           31.8          84.59         -133.2          112.6          109.4
    0.3537              -55.08          37.56           23.1          65.85          2.466          19.32          31.81          84.52         -132.9          112.6          109.5
    0.3679              -55.04          37.54          23.15          65.82          2.457          19.31          31.82          84.44         -132.6          112.5          109.5
     0.382              -55.01          37.51          23.22          65.79          2.447           19.3          31.84          84.35         -132.3          112.5          109.6
    0.3962              -54.96          37.49          23.29          65.76          2.435          19.29          31.86          84.25         -131.9          112.5          109.6
    0.4103              -54.92          37.46          23.37          65.72          2.423          19.28          31.87          84.13         -131.5          112.5          109.7
    0.4245              -54.86          37.43          23.46          65.67          2.408          19.26          31.89           84.0         -131.0          112.4          109.7
    0.4386               -54.8          37.39          23.56          65.62          2.391          19.25          31.92          83.85         -130.4          112.4          109.8
    0.4528              -54.73          37.35          23.68          65.56          2.371          19.23          31.95          83.68         -129.8          112.3          109.9
    0.4669              -54.65           37.3          23.82          65.49          2.349          19.21          31.98          83.48         -129.0          112.3          110.0
    0.4811              -54.55          37.24          23.99          65.41          2.322          19.18          32.02          83.24         -128.1          112.2          110.2
    0.4952              -54.43          37.18          24.18          65.32          2.291          19.15          32.06          82.96         -127.1          112.2          110.3
    0.5094               -54.3           37.1          24.41          65.21          2.253          19.11          32.12          82.63         -125.8          112.1          110.5
    0.5235              -54.13           37.0          24.68          65.07          2.209          19.07          32.18          82.24         -124.4          112.0          110.7
    0.5377              -53.94          36.88          25.02          64.91          2.155          19.02          32.26          81.76         -122.6          111.8          111.0
    0.5518              -53.69          36.74          25.42          64.71          2.089          18.95          32.35          81.18         -120.4          111.7          111.3
     0.566               -53.4          36.56          25.93          64.46          2.007          18.88          32.47          80.45         -117.7          111.5          111.8
    0.5801              -53.02          36.34          26.55          64.15          1.906          18.78          32.62          79.55         -114.3          111.3          112.3
    0.5943              -52.56          36.07          27.34          63.77          1.778          18.65           32.8          78.42         -110.0          111.0          112.9
    0.6084              -51.96          35.71          28.34          63.27          1.616           18.5          33.04          76.98         -104.6          110.6          113.7
    0.6226               -51.2          35.26          29.63          62.64          1.408          18.29          33.34          75.14         -97.72          110.1          114.8
    0.6367              -50.22          34.68          31.27          61.83          1.141          18.04          33.72          72.77         -88.85          109.5          116.1
    0.6509              -48.97          33.95          33.38           60.8         0.7996          17.71          34.21          69.75         -77.51          108.7          117.8
     0.665               -47.4          33.02          36.02           59.5         0.3708          17.29          34.83          65.95         -63.26          107.7          120.0
    0.6792              -45.49          31.89          39.25          57.92        -0.1518          16.79          35.58          61.32         -45.89          106.4          122.6
    0.6933              -43.27          30.57          42.98          56.08        -0.7575           16.2          36.46          55.95         -25.76          105.0          125.6
    0.7075              -40.86          29.15          47.03           54.1         -1.413          15.57           37.4          50.14         -3.955          103.5          128.9
    0.7216              -38.46          27.73          51.07          52.11         -2.069          14.93          38.35          44.32          17.85          101.9          132.2
    0.7358              -36.24          26.42          54.81          50.27         -2.675          14.35          39.22          38.95          37.98          100.5          135.3
    0.7499              -34.33          25.29          58.03          48.69         -3.197          13.84          39.97          34.32          55.35           99.3          137.9
    0.7641              -32.76          24.36          60.68          47.39         -3.626          13.43          40.59          30.52           69.6           98.3          140.0
    0.7782              -31.51          23.62          62.78          46.36         -3.967           13.1          41.08           27.5          80.94           97.5          141.7
    0.7924              -30.53          23.04          64.43          45.55         -4.234          12.84          41.47          25.13          89.81          96.88          143.1
    0.8065              -29.77          22.59          65.71          44.92         -4.442          12.64          41.77          23.29          96.73          96.39          144.1
    0.8207              -29.17          22.24          66.72          44.42         -4.605          12.48           42.0          21.85          102.1          96.01          144.9
    0.8348               -28.7          21.96           67.5          44.04         -4.733          12.36          42.19          20.72          106.4          95.71          145.6
     0.849              -28.33          21.74          68.13          43.73         -4.834          12.26          42.33          19.82          109.8          95.47          146.1
    0.8631              -28.03          21.56          68.63          43.48         -4.915          12.18          42.45          19.09          112.5          95.28          146.5
    0.8773              -27.79          21.42          69.04          43.28         -4.981          12.12          42.54          18.51          114.7          95.13          146.8
    0.8914              -27.59           21.3          69.37          43.12         -5.035          12.06          42.62          18.03          116.4           95.0          147.1
    0.9056              -27.43          21.21          69.65          42.98          -5.08          12.02          42.69          17.64          117.9           94.9          147.3
